<?xml version="1.0" standalone="no"?>
<!DOCTYPE svg PUBLIC "-//W3C//DTD SVG 20010904//EN"
 "http://www.w3.org/TR/2001/REC-SVG-20010904/DTD/svg10.dtd">
<svg version="1.0" xmlns="http://www.w3.org/2000/svg"
 width="533.000000pt" height="533.000000pt" viewBox="0 0 533.000000 533.000000"
 preserveAspectRatio="xMidYMid meet">
<metadata>
Created by potrace 1.11, written by Peter Selinger 2001-2013
</metadata>
<g transform="translate(0.000000,533.000000) scale(0.100000,-0.100000)"
fill="#000000" stroke="none">
<path d="M2469 5325 c-2 -1 -33 -6 -69 -9 -175 -15 -397 -62 -580 -123 -784
-261 -1412 -886 -1678 -1669 -27 -79 -65 -212 -76 -270 -3 -10 -9 -39 -14 -64
-11 -45 -15 -73 -27 -165 -4 -27 -9 -61 -12 -75 -9 -48 -11 -455 -2 -540 8
-74 35 -242 54 -335 36 -177 119 -405 219 -606 317 -630 869 -1108 1536 -1332
80 -27 246 -73 295 -82 91 -16 221 -36 281 -42 141 -15 534 -8 629 11 11 2 40
7 65 10 231 31 569 143 797 262 330 173 627 415 849 693 10 13 24 28 29 35 26
29 117 159 162 231 169 272 293 584 352 890 37 191 46 290 46 515 0 229 -10
340 -46 524 -166 849 -745 1570 -1543 1921 -181 79 -423 155 -576 179 -19 3
-46 8 -60 10 -113 21 -216 29 -406 32 -122 2 -223 1 -225 -1z m374 -149 c65
-3 121 -7 125 -10 4 -2 36 -7 71 -10 36 -4 67 -9 70 -10 3 -2 24 -7 46 -10
200 -31 552 -164 775 -292 454 -262 855 -716 1050 -1189 18 -44 39 -93 45
-110 39 -92 98 -313 120 -445 3 -19 7 -46 10 -60 5 -29 11 -77 20 -170 9 -83
9 -331 1 -396 -3 -27 -8 -78 -12 -114 -3 -36 -14 -110 -25 -166 -169 -890
-809 -1624 -1666 -1914 -114 -38 -279 -80 -373 -95 -25 -4 -52 -9 -60 -10
-313 -55 -729 -28 -1069 70 -822 236 -1468 872 -1715 1688 -28 93 -47 171 -71
287 -6 30 -15 96 -21 155 -4 33 -8 74 -10 90 -6 50 -5 348 0 395 3 25 8 68 10
95 10 111 45 285 82 407 13 46 26 90 28 98 2 9 20 56 39 105 283 729 875 1280
1620 1509 62 19 126 37 142 40 17 4 41 9 55 11 77 16 128 26 160 30 19 3 51 7
70 10 19 3 91 8 160 12 69 3 126 7 128 8 1 1 19 1 40 -1 20 -1 90 -5 155 -8z"/>
<path d="M2405 4905 c-161 -22 -183 -26 -275 -49 -486 -124 -894 -382 -1215
-770 -262 -318 -433 -722 -489 -1156 -8 -65 -12 -177 -10 -295 2 -175 5 -215
19 -300 2 -16 7 -48 11 -70 26 -171 122 -453 217 -635 77 -148 217 -355 302
-446 96 -104 205 -208 280 -269 84 -67 266 -195 279 -195 3 0 28 -14 56 -31
69 -43 250 -122 361 -159 260 -86 477 -119 759 -114 107 1 206 5 220 8 14 2
48 7 75 11 163 19 392 85 580 167 599 262 1072 800 1254 1429 29 102 59 234
66 294 2 17 7 59 12 95 14 115 8 445 -11 570 -98 655 -479 1241 -1027 1581
-231 144 -497 252 -729 298 -30 6 -66 14 -80 16 -14 3 -45 8 -70 11 -25 3 -56
8 -70 10 -59 11 -431 10 -515 -1z m-1430 -982 c50 -134 187 -366 287 -488 62
-76 225 -232 304 -291 287 -218 600 -336 978 -371 159 -14 378 5 551 48 555
140 1019 532 1241 1049 20 47 40 89 44 93 8 9 50 -46 116 -153 248 -396 358
-851 321 -1324 -8 -98 -29 -243 -43 -288 -3 -9 -6 -25 -8 -35 -15 -78 -57
-207 -109 -337 -26 -65 -119 -241 -167 -316 l-51 -79 -59 77 c-105 139 -246
286 -375 392 -149 122 -375 256 -530 315 -38 15 -79 31 -90 35 -105 44 -338
96 -520 115 -95 11 -342 12 -440 3 -127 -12 -293 -44 -405 -79 -104 -34 -290
-112 -332 -141 -14 -10 -29 -18 -32 -18 -10 0 -178 -110 -241 -159 -142 -109
-268 -227 -404 -381 -36 -41 -76 -86 -88 -100 -13 -13 -23 -28 -23 -32 0 -43
-75 63 -158 222 -261 502 -307 1111 -127 1663 33 102 66 180 127 302 51 103
193 325 207 325 5 0 16 -21 26 -47z m1870 -1667 c331 -86 588 -368 643 -706
14 -87 6 -280 -16 -360 -89 -332 -367 -587 -697 -640 -80 -13 -239 -12 -299 2
-22 5 -51 12 -64 14 -56 11 -154 54 -232 102 -195 121 -345 335 -396 562 -13
61 -16 244 -5 316 53 323 281 591 591 692 36 12 83 24 105 28 22 3 42 8 44 10
12 11 263 -4 326 -20z"/>
<path d="M2920 2113 c70 -47 123 -129 155 -238 19 -67 25 -224 11 -320 -4 -33
-9 -103 -11 -155 -2 -52 -10 -116 -18 -143 -45 -143 -192 -272 -332 -292 -27
-4 -57 -9 -65 -10 -37 -6 -148 18 -204 44 -34 17 -82 50 -108 75 -25 26 -48
46 -51 46 -8 0 3 -97 15 -145 20 -79 54 -129 119 -178 76 -57 166 -71 307 -47
57 9 71 16 80 35 6 13 25 31 42 40 59 30 128 -16 122 -81 -2 -28 -5 -29 83 30
263 176 392 518 311 826 -57 219 -203 400 -404 500 -67 33 -90 39 -52 13z"/>
<path d="M2222 2059 c-220 -140 -347 -375 -351 -644 -5 -328 191 -613 502
-730 37 -14 70 -25 73 -25 4 0 -21 18 -55 41 -140 94 -201 228 -196 431 2 57
6 119 10 138 4 19 6 65 6 102 -3 159 72 305 196 385 74 47 126 64 208 69 125
7 240 -35 327 -120 26 -25 49 -46 51 -46 6 0 -3 104 -14 165 -14 83 -54 151
-116 202 -81 65 -167 80 -307 53 -67 -13 -81 -20 -124 -74 -46 -57 -153 -4
-144 70 2 13 2 24 0 24 -2 0 -31 -19 -66 -41z"/>
</g>
</svg>
