<svg version="1.0" xmlns="http://www.w3.org/2000/svg" width="1122.667" height="1122.667" viewBox="0 0 842 842"><path d="M321.7 399.6c-.1.1-2 .4-4.2.7-5.8.8-13.2 2.5-19 4.4-5 1.5-21.5 9.1-22.5 10.2-.3.4-2.3 1.8-4.5 3.2-2.2 1.4-6.2 4.6-8.9 7-4.7 4.1-6.1 5.6-11.7 11.9-8.7 9.9-18.9 31.1-21.3 44.5-3.4 18.3-2 39.5 3.5 54.5 1.9 5.4 8.9 20 9.9 21 .3.3 1.4 1.8 2.3 3.3 4.2 6.6 17.7 20.7 23.7 24.7 1.9 1.3 3.7 2.7 4 3 .3.3 1.4 1 2.5 1.6 1.1.6 4.2 2.3 7 3.8 5.2 2.9 16.9 7.4 21.3 8.2 1.4.3 3 .8 3.6 1.2.6.3 1.7.7 2.6.8.8 0 4 .5 7 .9 5.7.8 21.2.8 26.5 0 8.6-1.2 12.9-2.1 17.4-3.7 2-.7 3.8-1.3 4.1-1.3 1.5-.4 7.2-2.9 12-5.3 19.7-9.8 37.8-28.6 47.1-49 3.8-8.2 7.5-20.9 8.5-29.2.8-6.8.8-24.3 0-28.2-2.8-13.4-4-17.9-4.8-18.4-.4-.3-.8-1.3-.8-2.2 0-3.1-8.4-18.7-14.1-26.2-5.9-7.9-21.3-23-23.4-23-.2 0-2.1-1.2-4.2-2.6-5.5-3.7-16.7-8.8-24.7-11.3-7.1-2.2-8.6-2.5-17.1-3.7-4.3-.6-21.3-1.2-21.8-.8zm24.8 6.9c32 6.2 56.5 24.5 71.2 53 6.9 13.5 10.2 29.1 9.8 46.5-.2 6.5-.6 12.3-.9 12.8-.3.5-.8 2.7-1.2 4.8-.8 5.4-5.1 16.8-9.1 24.3-7 13.2-15.6 23.3-27.8 32.4-6.9 5.1-21.7 13.1-26.5 14.3-.8.2-4 1-7 1.8-8.4 2.4-15.5 3.1-27.5 2.9-25-.4-48.3-10.6-66.2-29-12.1-12.3-20-25.8-24.4-41.8-2.8-10-3.1-12.5-3.2-25.5-.1-13.4.8-19.4 4.4-30.2 4.8-14.6 11.6-26.4 21.3-36.7 5.8-6 16.8-15.1 18.5-15.1.6 0 1.1-.4 1.1-.9s1-1.3 2.3-1.7c1.2-.4 2.4-1 2.7-1.3 1.3-1.8 20-8.8 25.8-9.7 11.1-1.8 14.9-2.1 23.7-1.8 5.5.2 11.4.6 13 .9z"/><path d="M320.6 415.7c-.1.1-2 .5-4.2.8-2.1.3-6.4 1.3-9.4 2.2-3 .9-5.7 1.7-6 1.8-.3 0-3.1 1.3-6.4 2.8-3.2 1.5-6.2 2.7-6.7 2.7s-.9.3-.9.8c0 .4-1.2 1.3-2.7 2-6.1 2.7-19.3 15.2-24.6 23.2-2 3-4 5.9-4.5 6.5-1.3 1.7-7.3 15.2-7.7 17.4-.2 1.2-.6 2.5-.9 3-.3.5-.8 2.6-1.2 4.7-.3 2.2-.8 5.2-1.1 6.9-1.2 6.3-.6 22.5 1.1 30 .2 1.1.7 3.3 1.1 5 .7 3.4 1.2 4.6 4.6 12.5 10 22.9 33.2 42.7 57 48.5 10.3 2.5 11 2.6 19.9 2.8 16.3.2 29.2-2.7 43.2-10 4.6-2.3 6.9-3.8 13.7-8.8 7.8-5.8 21.4-23.2 24.3-31.1.6-1.9 1.6-3.4 2.2-3.4.5 0 .7-.2.4-.6-.3-.3.5-3.7 1.9-7.7 3.5-10.4 4.9-26.9 3.1-36.7-.5-2.5-1.1-6.1-1.4-8-1.2-6.9-7-20.8-11.2-26.8-1.2-1.6-2.2-3.2-2.2-3.5 0-.3-1-1.7-2.2-3.2-15.2-18.4-33.4-29.1-55.8-33.2-2.7-.4-23-1-23.4-.6zM267.4 459c.1.3 2.2 3.6 4.7 7.5 17.9 27.2 50.3 38.4 81 28 18.3-6.3 33.9-20.3 41.3-37.3 1.1-2.3 2.2-4.2 2.6-4.2 1.2 0 6.6 8.9 10 16.5 1.7 3.8 3.1 7 3 7-.1 0 .1.7.4 1.5 2.3 7 3.4 16.5 3.1 26.4-.2 6.1-.6 12.2-.9 13.6-.3 1.4-.8 3.4-1.1 4.5-1.3 6.2-7.2 19.8-10.7 24.8l-2 2.8-2.4-3.3c-3.7-5.1-13.2-14.4-17.8-17.5-2.2-1.5-4.3-3.1-4.6-3.4-.8-1-16.4-8-17.7-8-.2 0-1.7-.5-3.5-1-1.8-.6-4.4-1.2-5.8-1.5-1.4-.3-3.6-.7-5-1-3.9-.8-18.9-.8-24.9 0-17.9 2.3-35.6 12.7-50.9 30.1l-4.2 4.8-1.9-2.4c-2.6-3.2-7.9-14.9-10-21.9-1.9-6.6-2.5-11.5-2.5-22 0-9.5.3-13.6 1.8-20.8.8-3.6 4.6-13.5 5.8-14.9.6-.7.8-1.3.4-1.3-.7 0 5-9.6 7.3-12.3 1.5-1.8 1.6-1.7 3 1.5.8 1.8 1.5 3.5 1.5 3.8zm75.4 61.5c16.5 7.4 24.3 27.6 16.9 43.8-12 26.4-48.5 26.8-60.5.8-3.9-8.4-4-19.5-.3-27.6 7.9-17.2 27-24.6 43.9-17z"/><path d="M311.9 526.9c-9 6.4-13.9 19.2-11.6 30.1 1.6 7.6 6.9 15.1 13.5 19.2 4.1 2.5 7.9 3.6 5.2 1.5-5.5-4.4-6.4-7.5-6.2-20.5.2-12.2 2.9-17.8 10.1-20.8 6.1-2.5 14.1-1.2 18.4 3 1.6 1.6 1.7 1.6 1.7-1.3 0-7.2-4.4-12.7-10.6-13.3-4.5-.5-9.4.9-11 3-1.4 1.9-4.2 1-5.2-1.6-.7-1.7-.9-1.7-4.3.7z"/><path d="M342.7 526.3c3.5 4 4.2 7.3 3.9 17.9-.3 11.2-1.7 15.8-5.9 19.6-3 2.8-9.3 5.2-12.2 4.6-1.1-.2-3-.6-4.2-.8-1.2-.3-3.2-1.4-4.5-2.5-3.1-3-4.1-2.6-3.3 1.1 1 4.6 2.1 6.4 5.3 8.6 3.5 2.6 12 2.5 14.6-.1 2.3-2.3 4.3-2.2 5.6.4 1.1 1.9 1.3 2 3.6.4 4.7-3 9-8.6 11.4-14.5 2.2-5.3 1.8-16.6-.7-22.2-2.4-5.3-9.8-13.2-13.2-14.1-2.3-.6-2.3-.6-.4 1.6z"/></svg>