<svg version="1.0" xmlns="http://www.w3.org/2000/svg" width="710.667" height="710.667" viewBox="0 0 533 533"><path d="M246.9.5c-.2.1-3.3.6-6.9.9-17.5 1.5-39.7 6.2-58 12.3-78.4 26.1-141.2 88.6-167.8 166.9-2.7 7.9-6.5 21.2-7.6 27-.3 1-.9 3.9-1.4 6.4-1.1 4.5-1.5 7.3-2.7 16.5-.4 2.7-.9 6.1-1.2 7.5-.9 4.8-1.1 45.5-.2 54 .8 7.4 3.5 24.2 5.4 33.5 3.6 17.7 11.9 40.5 21.9 60.6 31.7 63 86.9 110.8 153.6 133.2 8 2.7 24.6 7.3 29.5 8.2 9.1 1.6 22.1 3.6 28.1 4.2 14.1 1.5 53.4.8 62.9-1.1 1.1-.2 4-.7 6.5-1 23.1-3.1 56.9-14.3 79.7-26.2 33-17.3 62.7-41.5 84.9-69.3 1-1.3 2.4-2.8 2.9-3.5 2.6-2.9 11.7-15.9 16.2-23.1 16.9-27.2 29.3-58.4 35.2-89 3.7-19.1 4.6-29 4.6-51.5 0-22.9-1-34-4.6-52.4-16.6-84.9-74.5-157-154.3-192.1C355.5 14.6 331.3 7 316 4.6c-1.9-.3-4.6-.8-6-1C298.7 1.5 288.4.7 269.4.4c-12.2-.2-22.3-.1-22.5.1zm37.4 14.9c6.5.3 12.1.7 12.5 1 .4.2 3.6.7 7.1 1 3.6.4 6.7.9 7 1 .3.2 2.4.7 4.6 1 20 3.1 55.2 16.4 77.5 29.2 45.4 26.2 85.5 71.6 105 118.9 1.8 4.4 3.9 9.3 4.5 11 3.9 9.2 9.8 31.3 12 44.5.3 1.9.7 4.6 1 6 .5 2.9 1.1 7.7 2 17 .9 8.3.9 33.1.1 39.6-.3 2.7-.8 7.8-1.2 11.4-.3 3.6-1.4 11-2.5 16.6C497 402.6 433 476 347.3 505c-11.4 3.8-27.9 8-37.3 9.5-2.5.4-5.2.9-6 1-31.3 5.5-72.9 2.8-106.9-7-82.2-23.6-146.8-87.2-171.5-168.8-2.8-9.3-4.7-17.1-7.1-28.7-.6-3-1.5-9.6-2.1-15.5-.4-3.3-.8-7.4-1-9-.6-5-.5-34.8 0-39.5.3-2.5.8-6.8 1-9.5 1-11.1 4.5-28.5 8.2-40.7 1.3-4.6 2.6-9 2.8-9.8.2-.9 2-5.6 3.9-10.5 28.3-72.9 87.5-128 162-150.9 6.2-1.9 12.6-3.7 14.2-4 1.7-.4 4.1-.9 5.5-1.1 7.7-1.6 12.8-2.6 16-3 1.9-.3 5.1-.7 7-1 1.9-.3 9.1-.8 16-1.2 6.9-.3 12.6-.7 12.8-.8.1-.1 1.9-.1 4 .1 2 .1 9 .5 15.5.8z"/><path d="M240.5 42.5c-16.1 2.2-18.3 2.6-27.5 4.9-48.6 12.4-89.4 38.2-121.5 77-26.2 31.8-43.3 72.2-48.9 115.6-.8 6.5-1.2 17.7-1 29.5.2 17.5.5 21.5 1.9 30 .2 1.6.7 4.8 1.1 7 2.6 17.1 12.2 45.3 21.7 63.5 7.7 14.8 21.7 35.5 30.2 44.6 9.6 10.4 20.5 20.8 28 26.9 8.4 6.7 26.6 19.5 27.9 19.5.3 0 2.8 1.4 5.6 3.1 6.9 4.3 25 12.2 36.1 15.9 26 8.6 47.7 11.9 75.9 11.4 10.7-.1 20.6-.5 22-.8 1.4-.2 4.8-.7 7.5-1.1 16.3-1.9 39.2-8.5 58-16.7 59.9-26.2 107.2-80 125.4-142.9 2.9-10.2 5.9-23.4 6.6-29.4.2-1.7.7-5.9 1.2-9.5 1.4-11.5.8-44.5-1.1-57-9.8-65.5-47.9-124.1-102.7-158.1-23.1-14.4-49.7-25.2-72.9-29.8-3-.6-6.6-1.4-8-1.6-1.4-.3-4.5-.8-7-1.1-2.5-.3-5.6-.8-7-1-5.9-1.1-43.1-1-51.5.1zm-143 98.2c5 13.4 18.7 36.6 28.7 48.8 6.2 7.6 22.5 23.2 30.4 29.1 28.7 21.8 60 33.6 97.8 37.1 15.9 1.4 37.8-.5 55.1-4.8 55.5-14 101.9-53.2 124.1-104.9 2-4.7 4-8.9 4.4-9.3.8-.9 5 4.6 11.6 15.3 24.8 39.6 35.8 85.1 32.1 132.4-.8 9.8-2.9 24.3-4.3 28.8-.3.9-.6 2.5-.8 3.5-1.5 7.8-5.7 20.7-10.9 33.7-2.6 6.5-11.9 24.1-16.7 31.6l-5.1 7.9-5.9-7.7c-10.5-13.9-24.6-28.6-37.5-39.2-14.9-12.2-37.5-25.6-53-31.5-3.8-1.5-7.9-3.1-9-3.5-10.5-4.4-33.8-9.6-52-11.5-9.5-1.1-34.2-1.2-44-.3-12.7 1.2-29.3 4.4-40.5 7.9-10.4 3.4-29 11.2-33.2 14.1-1.4 1-2.9 1.8-3.2 1.8-1 0-17.8 11-24.1 15.9-14.2 10.9-26.8 22.7-40.4 38.1-3.6 4.1-7.6 8.6-8.8 10-1.3 1.3-2.3 2.8-2.3 3.2 0 4.3-7.5-6.3-15.8-22.2-26.1-50.2-30.7-111.1-12.7-166.3 3.3-10.2 6.6-18 12.7-30.2 5.1-10.3 19.3-32.5 20.7-32.5.5 0 1.6 2.1 2.6 4.7zm187 166.7c33.1 8.6 58.8 36.8 64.3 70.6 1.4 8.7.6 28-1.6 36-8.9 33.2-36.7 58.7-69.7 64-8 1.3-23.9 1.2-29.9-.2-2.2-.5-5.1-1.2-6.4-1.4-5.6-1.1-15.4-5.4-23.2-10.2-19.5-12.1-34.5-33.5-39.6-56.2-1.3-6.1-1.6-24.4-.5-31.6 5.3-32.3 28.1-59.1 59.1-69.2 3.6-1.2 8.3-2.4 10.5-2.8 2.2-.3 4.2-.8 4.4-1 1.2-1.1 26.3.4 32.6 2z"/><path d="M292 321.7c7 4.7 12.3 12.9 15.5 23.8 1.9 6.7 2.5 22.4 1.1 32-.4 3.3-.9 10.3-1.1 15.5-.2 5.2-1 11.6-1.8 14.3-4.5 14.3-19.2 27.2-33.2 29.2-2.7.4-5.7.9-6.5 1-3.7.6-14.8-1.8-20.4-4.4-3.4-1.7-8.2-5-10.8-7.5-2.5-2.6-4.8-4.6-5.1-4.6-.8 0 .3 9.7 1.5 14.5 2 7.9 5.4 12.9 11.9 17.8 7.6 5.7 16.6 7.1 30.7 4.7 5.7-.9 7.1-1.6 8-3.5.6-1.3 2.5-3.1 4.2-4 5.9-3 12.8 1.6 12.2 8.1-.2 2.8-.5 2.9 8.3-3 26.3-17.6 39.2-51.8 31.1-82.6-5.7-21.9-20.3-40-40.4-50-6.7-3.3-9-3.9-5.2-1.3z"/><path d="M222.2 327.1c-22 14-34.7 37.5-35.1 64.4-.5 32.8 19.1 61.3 50.2 73 3.7 1.4 7 2.5 7.3 2.5.4 0-2.1-1.8-5.5-4.1-14-9.4-20.1-22.8-19.6-43.1.2-5.7.6-11.9 1-13.8.4-1.9.6-6.5.6-10.2-.3-15.9 7.2-30.5 19.6-38.5 7.4-4.7 12.6-6.4 20.8-6.9 12.5-.7 24 3.5 32.7 12 2.6 2.5 4.9 4.6 5.1 4.6.6 0-.3-10.4-1.4-16.5-1.4-8.3-5.4-15.1-11.6-20.2-8.1-6.5-16.7-8-30.7-5.3-6.7 1.3-8.1 2-12.4 7.4-4.6 5.7-15.3.4-14.4-7 .2-1.3.2-2.4 0-2.4s-3.1 1.9-6.6 4.1z"/></svg>